# xmcd CD database file
#
# Track frame offsets:
#	187
#	18305
#	33727
#	53980
#	73300
#	93710
#	114065
#	136712
#	158200
#	179752
#	198782
#	219907
#
# Disc length: 3200 seconds
#
# Revision: 0
# Processed by: cddbd v1.5PL3 Copyright (c) Steve Scherf et al.
# Submitted via: CDex 1.51
#
DISCID=a70c7e0c
DTITLE=高橋真梨子 - Songs for you… [CD1]
DYEAR=1991
DGENRE=Pop
TTITLE0=あなたの空を翔びたい
TTITLE1=おいでサマー・ホリデー
TTITLE2=ハート&ハード〜時には強く時には優しく
TTITLE3=すべて霧の中
TTITLE4=ランナー
TTITLE5=ランブル
TTITLE6=裏窓
TTITLE7=Brown Joe
TTITLE8=Tea For Memory
TTITLE9=No More Love
TTITLE10=ワインのようなKiss
TTITLE11=Thanks
EXTD=YEAR: 1991
EXTT0=
EXTT1=
EXTT2=
EXTT3=
EXTT4=
EXTT5=
EXTT6=
EXTT7=
EXTT8=
EXTT9=
EXTT10=
EXTT11=
PLAYORDER=
